<?xml version="1.0" encoding="UTF-8" standalone="no"?>
<!DOCTYPE svg PUBLIC "-//W3C//DTD SVG 1.1//EN" "http://www.w3.org/Graphics/SVG/1.1/DTD/svg11.dtd">
<svg fill-rule="evenodd" stroke-linejoin="round" stroke-miterlimit="2" clip-rule="evenodd" viewBox="0 0 79 78" xmlns="http://www.w3.org/2000/svg"><path d="M23.325 76.02L4.351 77.6a3.124 3.124 0 01-3.374-3.373l1.582-18.975c.059-.71.36-1.406.904-1.95L44.766 12l9.46-9.46a7.878 7.878 0 0111.141 0l10.67 10.67a7.877 7.877 0 010 11.141l-9.46 9.46-41.302 41.303a3.113 3.113 0 01-1.95.904zM8.227 62.485l-.716 8.581 8.582-.716-7.866-7.865zM46.975 18.63L10.092 55.513l12.974 12.974 36.883-36.884L46.975 18.63zm17.393 8.555l7.25-7.252a1.629 1.629 0 000-2.303L60.949 6.96a1.629 1.629 0 00-2.303 0l-7.251 7.25 12.974 12.975z"/></svg>
