<?xml version="1.0" encoding="UTF-8" standalone="no"?>
<!DOCTYPE svg PUBLIC "-//W3C//DTD SVG 1.1//EN" "http://www.w3.org/Graphics/SVG/1.1/DTD/svg11.dtd">
<svg fill-rule="evenodd" stroke-linejoin="round" stroke-miterlimit="2" clip-rule="evenodd" viewBox="0 0 88 101" xmlns="http://www.w3.org/2000/svg"><path d="M16.123 13.425v-.72c0-6.888 6.74-12.472 15.053-12.472h25.868c8.314 0 15.054 5.584 15.054 12.471v.721h8.12c1.97 0 3.859.648 5.252 1.802 1.392 1.154 2.174 2.719 2.174 4.35v3.18H.576v-3.18c0-1.631.783-3.196 2.176-4.35 1.392-1.154 3.281-1.802 5.251-1.802h8.12zm48.577 0v-.72c0-3.504-3.428-6.343-7.656-6.343H31.176c-4.227 0-7.655 2.84-7.655 6.342v.721h41.18zM4.65 33.084c-.137-1.227.356-2.445 1.358-3.355 1.002-.91 2.42-1.43 3.907-1.43h68.391c1.487 0 2.905.52 3.907 1.43 1.002.91 1.494 2.128 1.357 3.355l-6.41 57.263c-.627 5.602-6.3 9.886-13.09 9.886H24.15c-6.79 0-12.464-4.284-13.09-9.886L4.65 33.084zM28.543 39.2c0-.744-.356-1.456-.99-1.981-.634-.526-1.495-.821-2.392-.821h-.002c-.897 0-1.757.295-2.392.82-.634.526-.99 1.238-.99 1.982v45.532c0 .743.356 1.456.99 1.982.635.525 1.495.82 2.392.82h.002c.897 0 1.758-.295 2.392-.82.634-.526.99-1.239.99-1.982V39.201zm37.903 0c0-.744-.357-1.456-.99-1.981-.635-.526-1.496-.821-2.392-.821h-.003c-.897 0-1.757.295-2.39.82-.635.526-.991 1.238-.991 1.982v45.532c0 .743.356 1.456.99 1.982.634.525 1.494.82 2.391.82h.003c.896 0 1.757-.295 2.391-.82.634-.526.99-1.239.99-1.982V39.201zm-18.952 0c0-.744-.356-1.456-.99-1.981-.634-.526-1.495-.821-2.391-.821h-.003c-.897 0-1.757.295-2.39.82-.635.526-.992 1.238-.992 1.982v45.532c0 .743.357 1.456.991 1.982.634.525 1.494.82 2.391.82h.003c.896 0 1.757-.295 2.391-.82.634-.526.99-1.239.99-1.982V39.201z"/></svg>
