<?xml version="1.0" encoding="UTF-8" standalone="no"?>
<!DOCTYPE svg PUBLIC "-//W3C//DTD SVG 1.1//EN" "http://www.w3.org/Graphics/SVG/1.1/DTD/svg11.dtd">
<svg width="100%" height="100%" viewBox="0 0 101 93" version="1.1" xmlns="http://www.w3.org/2000/svg" xmlns:xlink="http://www.w3.org/1999/xlink" xml:space="preserve" xmlns:serif="http://www.serif.com/" style="fill-rule:evenodd;clip-rule:evenodd;stroke-linejoin:round;stroke-miterlimit:2;">
    <g transform="matrix(1,0,0,1,-41,-174)">
        <g transform="matrix(1,0,0,1,0,9.23338)">
            <g id="homeIcon" transform="matrix(2.04798,0,0,2.04798,-34.2699,64.2655)">
                <path d="M41.143,70.144L38.574,70.144C37.817,70.144 37.145,69.672 36.899,68.969C36.654,68.266 36.89,67.488 37.487,67.032L60.131,49.74C60.77,49.252 61.665,49.252 62.304,49.74L84.948,67.032C85.545,67.488 85.781,68.266 85.536,68.969C85.291,69.672 84.618,70.144 83.861,70.144L81.292,70.144L78.147,92.867C78.027,93.729 77.278,94.371 76.392,94.371L46.043,94.371C45.157,94.371 44.408,93.729 44.288,92.867L41.143,70.144ZM69.635,88.097C69.635,87.673 69.467,87.267 69.167,86.967C68.867,86.667 68.461,86.499 68.037,86.499L54.398,86.499C53.974,86.499 53.568,86.667 53.268,86.967C52.969,87.267 52.8,87.673 52.8,88.097L52.8,88.1C52.8,88.524 52.969,88.93 53.268,89.23C53.568,89.529 53.974,89.698 54.398,89.698L68.037,89.698C68.461,89.698 68.867,89.529 69.167,89.23C69.467,88.93 69.635,88.524 69.635,88.1L69.635,88.097Z"/>
            </g>
        </g>
    </g>
</svg>
