<?xml version="1.0" encoding="UTF-8" standalone="no"?>
<!DOCTYPE svg PUBLIC "-//W3C//DTD SVG 1.1//EN" "http://www.w3.org/Graphics/SVG/1.1/DTD/svg11.dtd">
<svg fill-rule="evenodd" stroke-linejoin="round" stroke-miterlimit="2" clip-rule="evenodd" viewBox="0 0 101 101" xmlns="http://www.w3.org/2000/svg"><path d="M29.862 98.175L5.34 100.22a4.038 4.038 0 01-4.36-4.36l2.045-24.522a4.021 4.021 0 011.169-2.52l53.377-53.376L69.797 3.216c3.976-3.976 10.422-3.976 14.398 0l13.79 13.79c3.976 3.976 3.976 10.422 0 14.398L85.758 43.63 32.382 97.006a4.023 4.023 0 01-2.52 1.169zM10.35 80.685l-.925 11.09 11.09-.925L10.35 80.685zm50.076-56.677L12.76 71.674 29.527 88.44l47.665-47.666-16.766-16.766zm22.477 11.056l9.371-9.371a2.105 2.105 0 000-2.977l-13.79-13.79a2.105 2.105 0 00-2.976 0l-9.371 9.371 16.766 16.767z"/></svg>
