<?xml version="1.0" encoding="UTF-8" standalone="no"?>
<!DOCTYPE svg PUBLIC "-//W3C//DTD SVG 1.1//EN" "http://www.w3.org/Graphics/SVG/1.1/DTD/svg11.dtd">
<svg fill-rule="evenodd" stroke-linejoin="round" stroke-miterlimit="2" clip-rule="evenodd" viewBox="0 0 101 99" xmlns="http://www.w3.org/2000/svg"><path d="M75.486 83.215a46.125 46.125 0 01-28.736 9.996c-25.57 0-46.331-20.76-46.331-46.33C.419 21.31 21.179.548 46.75.548S93.08 21.31 93.08 46.88c0 9.66-2.962 18.635-8.028 26.062l13.314 13.314a7.018 7.018 0 010 9.92 7.018 7.018 0 01-9.92 0l-12.96-12.96zM46.75 14.578c-17.829 0-32.302 14.474-32.302 32.302 0 17.829 14.473 32.303 32.302 32.303 17.828 0 32.302-14.474 32.302-32.303 0-17.828-14.474-32.302-32.302-32.302z"/></svg>
