<?xml version="1.0" encoding="UTF-8" standalone="no"?>
<!DOCTYPE svg PUBLIC "-//W3C//DTD SVG 1.1//EN" "http://www.w3.org/Graphics/SVG/1.1/DTD/svg11.dtd">
<svg fill-rule="evenodd" stroke-linejoin="round" stroke-miterlimit="2" clip-rule="evenodd" viewBox="0 0 79 78" xmlns="http://www.w3.org/2000/svg"><path d="M78.107 12.814A12.508 12.508 0 0065.598.305H13.237A12.508 12.508 0 00.728 12.815v52.36a12.51 12.51 0 0012.509 12.51h52.361a12.508 12.508 0 0012.509-12.51v-52.36z"/><path fill="#fff" fill-rule="nonzero" d="M19.65 39.634c.435 0 .884-.021 1.347-.065.461-.044.885-.11 1.268-.197.385-.087.703-.205.956-.353.252-.149.38-.327.38-.537a.813.813 0 00-.237-.6c-.435.156-.92.291-1.452.405-.53.113-1.207.17-2.028.17-.802 0-1.569-.14-2.301-.419a5.359 5.359 0 01-1.936-1.27c-.559-.566-1.003-1.277-1.335-2.131-.331-.855-.497-1.866-.497-3.035 0-.994.092-1.814.275-2.46.182-.645.397-1.246.641-1.805a27.787 27.787 0 002.642-.431 10.041 10.041 0 004.787-2.486c.734-.671 1.431-1.538 2.094-2.602h4.684c.697 0 1.324.06 1.883.182a3.434 3.434 0 011.438.667c.402.323.711.772.93 1.347.218.577.326 1.318.326 2.225v27.784a8.975 8.975 0 01-3.14 1.884c-1.186.419-2.38.628-3.583.628-.924 0-1.819-.118-2.682-.354a6.554 6.554 0 01-2.289-1.111 5.415 5.415 0 01-1.583-1.95c-.392-.793-.588-1.747-.588-2.864V39.634zm30.322 16.849c-2.25 0-4.3-.37-6.149-1.113a12.598 12.598 0 01-4.748-3.309c-1.316-1.465-2.337-3.28-3.061-5.442-.724-2.163-1.085-4.674-1.085-7.534 0-2.74.374-5.198 1.125-7.378.75-2.18 1.796-4.03 3.14-5.547a13.699 13.699 0 014.76-3.493c1.831-.81 3.837-1.216 6.018-1.216 2.162 0 4.164.406 6.004 1.216a13.68 13.68 0 014.775 3.493c1.342 1.518 2.389 3.367 3.139 5.547.75 2.18 1.125 4.639 1.125 7.378 0 2.86-.362 5.371-1.086 7.534-.723 2.163-1.743 3.977-3.06 5.442a12.598 12.598 0 01-4.75 3.31c-1.848.742-3.897 1.112-6.147 1.112zm5.232-11.25c-.21-.157-.506-.41-.89-.76a30.47 30.47 0 01-1.268-1.228c-.462-.472-.943-.99-1.44-1.557a25.887 25.887 0 01-1.399-1.74 26.202 26.202 0 01-1.125-1.701 47.225 47.225 0 01-1.936-3.48c-.244-.488-.401-.854-.471-1.098-.54 0-.811.314-.811.942 0 .244.075.571.222.981.149.41.354.876.615 1.4.262.523.576 1.081.942 1.674.366.592.768 1.186 1.203 1.779l.367.497a29.968 29.968 0 001.635 2.067c.532.61 1.03 1.125 1.491 1.543.463.42.877.742 1.244.968.365.227.67.34.915.34a.85.85 0 00.432-.13c.148-.088.24-.254.274-.497z"/></svg>
