<?xml version="1.0" encoding="UTF-8" standalone="no"?>
<!DOCTYPE svg PUBLIC "-//W3C//DTD SVG 1.1//EN" "http://www.w3.org/Graphics/SVG/1.1/DTD/svg11.dtd">
<svg width="100%" height="100%" viewBox="0 0 101 24" version="1.1" xmlns="http://www.w3.org/2000/svg" xmlns:xlink="http://www.w3.org/1999/xlink" xml:space="preserve" xmlns:serif="http://www.serif.com/" style="fill-rule:evenodd;clip-rule:evenodd;stroke-linejoin:round;stroke-miterlimit:2;">
    <g transform="matrix(1,0,0,1,-41,-317)">
        <g transform="matrix(1,0,0,1,0,9.23338)">
            <g transform="matrix(5.94531,0,0,5.16228,-49143.3,-12497.5)">
                <path d="M8274.73,2480.65C8275.79,2480.65 8276.65,2481.64 8276.65,2482.85C8276.65,2484.07 8275.79,2485.05 8274.73,2485.05C8273.67,2485.05 8272.81,2484.07 8272.81,2482.85C8272.81,2481.64 8273.67,2480.65 8274.73,2480.65ZM8281.22,2480.65C8282.28,2480.65 8283.14,2481.64 8283.14,2482.85C8283.14,2484.07 8282.28,2485.05 8281.22,2485.05C8280.16,2485.05 8279.3,2484.07 8279.3,2482.85C8279.3,2481.64 8280.16,2480.65 8281.22,2480.65ZM8287.71,2480.65C8288.77,2480.65 8289.63,2481.64 8289.63,2482.85C8289.63,2484.07 8288.77,2485.05 8287.71,2485.05C8286.65,2485.05 8285.79,2484.07 8285.79,2482.85C8285.79,2481.64 8286.65,2480.65 8287.71,2480.65Z"/>
            </g>
        </g>
    </g>
</svg>
